<?xml version="1.0" encoding="UTF-8" standalone="no"?>
<!-- Created with Inkscape (http://www.inkscape.org/) -->

<svg
   width="67.73333mm"
   height="67.73333mm"
   version="1.1"
   viewBox="0 0 67.733333 67.733333"
   xml:space="preserve"
   id="svg1"
   sodipodi:docname="favicon.svg"
   inkscape:export-filename="assets\images\favicon.svg"
   inkscape:export-xdpi="96"
   inkscape:export-ydpi="96"
   xmlns:inkscape="http://www.inkscape.org/namespaces/inkscape"
   xmlns:sodipodi="http://sodipodi.sourceforge.net/DTD/sodipodi-0.dtd"
   xmlns="http://www.w3.org/2000/svg"
   xmlns:svg="http://www.w3.org/2000/svg"><sodipodi:namedview
     id="namedview1"
     pagecolor="#ffffff"
     bordercolor="#000000"
     borderopacity="0.25"
     inkscape:showpageshadow="2"
     inkscape:pageopacity="0.0"
     inkscape:pagecheckerboard="0"
     inkscape:deskcolor="#d1d1d1"
     inkscape:document-units="mm" /><defs
     id="defs1"><clipPath
       id="clipPath1"><rect
         x="33.886002"
         y="105.15"
         width="25.893"
         height="34.300999"
         fill="#ffffff"
         stroke-width="0.26458"
         id="rect1" /></clipPath></defs><g
     transform="matrix(8.0001342,0,0,8.0001428,-248.11234,-1712.784)"
     id="g1"><path
       transform="matrix(0.32739,0,0,0.24683,19.909,188.14)"
       d="m 46.395,105.15 c -2.3154,3.2233 -4.7173,6.4388 -7.2126,9.525 -1.7115,2.1169 -4.035,4.5341 -4.9297,7.1438 -1.2117,3.5343 0.98464,7.7211 4.7339,8.3797 2.4399,0.42861 5.1979,0.087 7.6729,0.087 v 9.2604 c 1.5833,-1.2807 2.7187,-3.1404 3.9353,-4.7625 3.2963,-4.3951 13.919,-14.685 5.3249,-19.337 -2.6177,-1.4168 -6.3804,-0.7715 -9.2602,-0.7715 0,-2.7482 0.79676,-6.9957 -0.26458,-9.525 m 15.875,3.7042 v 10.848 c 4.42e-4,1.3766 -0.26274,3.3357 0.89828,4.3489 1.5636,1.3645 5.375,0.6782 7.3038,0.6782 v 0.79375 c -2.654,0 -5.5142,0.4243 -7.9375,-0.79375 -1.1944,4.6152 7.0547,2.9104 10.054,2.9104 v -5.0271 h -8.2021 v -11.642 h 1.0583 v 10.583 h 2.1167 v -12.7 h -5.2917 m 10.054,10.319 h 3.175 c 1.1067,7.3832 12.193,6.6457 12.401,-0.79375 0.19391,-6.9328 -10.133,-8.8636 -12.137,-2.1167 2.241,-0.048 3.4525,-1.9374 5.5563,-2.0848 7.3484,-0.51503 3.7966,11.449 -1.8482,7.4684 -0.61619,-0.43454 -1.1512,-1.0198 -1.5175,-1.6796 -0.48123,-0.86671 -0.47308,-1.6974 -0.33849,-2.6456 h -3.175 c 1.2871,-8.5874 14.22,-7.9246 14.483,0.79375 0.24932,8.2501 -11.923,9.9187 -14.219,2.1167 h -2.1167 c 0.97128,11.041 18.595,8.7308 18.437,-2.0411 -0.11143,-7.5674 -9.2048,-12.232 -15.262,-7.3834 -2.7244,2.181 -3.4398,5.0501 -3.4398,8.3662 m 17.463,-10.319 7.1438,18.785 c 1.5155,-0.51903 1.9518,-2.8452 2.4656,-4.2333 1.4837,-4.0089 3.9526,-8.2215 4.6782,-12.435 h 1.0583 l -6.35,16.669 h 2.3812 l 7.1438,-18.785 -5.3846,0.27193 -1.7063,3.6968 -3.757,9.7896 h -0.26458 l -4.2333,-11.642 h 1.0583 l 3.175,8.7312 c 2.0785,-2.518 0.35762,-5.0488 -0.64145,-7.6729 -0.33068,-0.86858 -0.679,-2.573 -1.5859,-3.0154 -1.3024,-0.6353 -3.7457,-0.15965 -5.181,-0.15965 m 20.638,7.1438 c 2.5395,0.62896 3.8033,-2.1222 6.35,-1.801 6.6482,0.8383 2.4016,11.067 -2.6448,7.4859 -0.62527,-0.44372 -1.1851,-1.0496 -1.5648,-1.7161 -0.47077,-0.82637 -0.53311,-1.7192 -0.55285,-2.6458 h -2.9104 c 0.15372,-1.5008 0.83878,-2.8603 1.8798,-3.9581 0.86838,-0.91574 1.9383,-1.6811 3.1472,-2.0681 10.609,-3.3958 12.647,15.237 1.5875,14.181 -1.8326,-0.17498 -3.4733,-1.0148 -4.7347,-2.3449 -1.389,-1.4646 -1.4736,-2.873 -3.7319,-2.8998 0.50933,5.7972 7.4175,8.6995 12.435,6.7554 4.2948,-1.6639 6.3801,-6.0293 5.7414,-10.46 -0.80789,-5.6041 -6.8591,-8.8337 -12.091,-7.2575 -3.3584,1.0117 -7.2684,5.2109 -6.4549,9.0704 0.27105,1.286 2.0788,0.55113 2.8806,1.2572 2.0855,1.8365 2.048,4.2899 5.4264,4.7878 5.1466,0.75849 9.175,-4.8968 6.3514,-9.4454 -2.5982,-4.1854 -9.5502,-3.8381 -11.114,1.0583 m 17.992,1.8521 c -1.5055,-4.7592 4.825,-9.9387 7.6729,-4.4979 l -0.26458,0.26459 c -0.98436,-0.6845 -1.8956,-1.7611 -3.175,-1.7986 -2.9857,-0.0875 -4.7295,3.5595 -3.4396,6.0215 0.80837,1.5429 4.0359,2.1121 4.2542,3.7134 0.26007,1.908 -1.8706,0.21979 -2.1375,-0.79252 h -5.0271 c 0.0105,1.2673 0.11916,2.5549 0.71025,3.704 4.4175,8.5875 17.238,-2.0218 9.3398,-7.6143 -0.82076,-0.58119 -1.6599,-0.9416 -2.6418,-1.1167 v -0.26458 h 4.4979 c -1.4e-4,-1.2566 0.0926,-2.5707 -0.55285,-3.7042 -1.9366,-3.4009 -7.1178,-3.9168 -9.557,-0.76904 -1.3993,1.8057 -1.8395,5.4384 0.32032,6.8545 m 12.171,-8.9958 v 9.2604 h 0.26458 c 1.7875,-2.4888 1.8521,-4.1526 1.8521,-7.1438 h 1.0583 l -0.19252,4.4979 -2.8467,4.4979 -0.13576,7.6729 h 5.2917 v -8.9958 c -2.5848,1.2605 -2.3904,4.389 -2.1167,6.8792 h -1.0583 l 0.26151,-5.0271 2.514,-3.9688 0.39953,-7.6729 h -5.2917 m 8.2021,9.2604 h 0.26458 c -1.5815,-4.9891 5.2998,-10.496 7.6729,-4.4979 -1.1188,-0.33999 -1.7677,-1.3979 -2.9106,-1.6967 -4.4489,-1.1633 -5.8259,5.5854 -2.3772,7.6421 0.79584,0.47462 2.8429,0.96459 2.6628,2.2279 -0.25977,1.8219 -2.0016,-0.15761 -2.1375,-1.0295 h -5.0271 c 0.004,1.2811 0.0443,2.5505 0.67677,3.7042 4.6452,8.4729 17.08,-1.9427 9.3535,-7.6137 -0.87276,-0.6406 -1.8304,-0.95923 -2.8865,-1.1175 v -0.26458 h 4.7625 c -1.3e-4,-1.2818 0.057,-2.5449 -0.58959,-3.704 -2.0156,-3.6129 -7.7578,-3.8727 -9.9335,-0.26091 -1.3313,2.21 -0.7415,4.527 0.46894,6.6107 m -15.346,-2.6458 -1.5875,-0.52917 c -0.69592,3.3746 5.1862,2.8667 4.8591,6.8792 -0.35315,4.3314 -7.1423,5.2104 -8.0341,0.79375 1.358,0.48141 2.2,1.9028 3.7042,2.0485 2.4424,0.23646 4.098,-2.7117 2.7242,-4.6829 -1.033,-1.4822 -3.8057,-1.609 -4.2235,-3.4551 -0.45698,-2.0188 2.2425,-3.8138 2.5576,-1.0542 m 20.638,0 -1.5875,-0.52917 c -0.6561,3.1882 4.2168,2.6877 4.706,5.8208 0.81088,5.194 -5.9826,6.2829 -8.1455,2.1167 l 1.0583,-0.26458 c 1.9863,2.5456 7.3361,2.372 5.9705,-1.8519 -0.75786,-2.344 -3.9732,-2.0424 -4.651,-4.2376 -0.63886,-2.0689 2.1924,-3.8593 2.6493,-1.0542 m -107.42,1.5875 -0.26458,4.2333 5.5562,0.26459 -5.0271,6.6146 h -0.26458 v -4.4979 l -5.2917,-0.26458 c 1.178,-2.0675 3.1248,-5.2934 5.2917,-6.35 m 18.256,13.494 v 0.79375 h 1.8521 v 5.5562 h 0.79375 v -5.5562 l 2.1167,-0.26458 -4.7625,-0.52917 m 9.2604,0 0.26458,6.35 h 3.4396 v -0.79375 h -2.6458 v -2.1167 h 2.3812 v -0.79375 h -2.3812 v -1.8521 c 1.0741,-8.3e-4 1.9767,0.1341 2.6458,-0.79375 h -3.7042 m 13.229,5.5562 c -0.93525,-6.2e-4 -2.0545,0.13259 -2.851,-0.46098 -2.8917,-2.155 0.53935,-4.5457 2.851,-4.3015 -0.43821,-2.0449 -4.1159,-0.36269 -4.6302,1.0583 -1.0393,2.8714 3.3351,6.6218 4.6302,3.7042 m 5.0271,-5.5562 v 6.35 l 1.2988,-2.5627 2.6699,-0.34768 c -0.17862,1.1387 -0.58484,2.5408 0.79375,2.9104 v -6.35 h -0.79375 c -0.14046,2.2722 -0.89246,2.9244 -3.175,2.3812 l 0.26458,-2.3812 h -1.0583 m 10.319,0 v 6.35 h 0.79375 v -4.7625 c 0.94019,1.5359 1.8932,4.1976 3.7042,4.7625 v -6.35 h -0.52917 v 4.4979 c -1.2154,-1.468 -2.04,-3.9306 -3.9688,-4.4979 m 11.426,0.18598 c -3.3083,1.2785 -1.4406,7.4476 2.3282,5.9676 3.4923,-1.3714 1.5069,-7.4496 -2.3282,-5.9676 m 9.2114,-0.18598 v 6.35 h 3.4396 v -0.79375 h -2.6458 v -5.5562 h -0.79375 m 9.5291,0.19639 c -3.3889,1.3347 -1.5685,7.3812 2.1114,5.9572 3.4529,-1.3362 1.7486,-7.4774 -2.1114,-5.9572 m 14.019,5.889 v -3.175 h -2.1167 v 0.79375 c 2.0483,0.62392 0.47589,2.4634 -1.043,1.4276 -3.1997,-2.1819 0.59444,-4.4719 2.8951,-4.3381 -2.4944,-3.8476 -8.5898,4.676 -2.3812,5.506 0.89202,0.11926 1.7725,-0.0522 2.6458,-0.21436 m 4.7625,-6.0854 1.8521,6.35 h 0.79375 l 2.1167,-6.35 c -1.3666,0.23494 -1.7617,1.4136 -2.1167,2.6458 h -0.52917 c -0.47668,-1.1445 -0.86957,-2.2558 -2.1167,-2.6458 m -36.509,0.70045 c 2.6361,-0.31951 2.8583,4.7305 0.26152,4.8778 -2.5612,0.14535 -2.682,-4.5845 -0.26152,-4.8778 m 18.529,-0.0278 c 2.6296,-0.45402 3.135,4.546 0.51487,4.9001 -2.5934,0.35046 -2.8478,-4.4973 -0.51487,-4.9001 z"
       clip-path="url(#clipPath1)"
       fill="#32869f"
       id="path1" /></g><style
     id="style1">&#10;    @media (prefers-color-scheme:dark){:root{filter:invert(100%)}}&#10;  </style></svg>
