<svg xmlns="http://www.w3.org/2000/svg" xml:space="preserve" id="svg1" width="256" height="256" version="1.1" viewBox="0 0 67.733 67.733"><defs id="defs1"><clipPath id="clipPath1"><path id="rect1" fill="#fff" stroke-width=".265" d="M33.886 105.15h25.893v34.301H33.886z"/></clipPath></defs><g id="g1" transform="matrix(8.00013 0 0 8.00014 -248.112 -1712.784)"><path id="path1" fill="#32869f" d="M46.395 105.15c-2.315 3.223-4.717 6.439-7.213 9.525-1.711 2.117-4.035 4.534-4.93 7.144-1.211 3.534.985 7.72 4.735 8.38 2.44.428 5.198.087 7.673.087v9.26c1.583-1.28 2.718-3.14 3.935-4.763 3.296-4.395 13.919-14.685 5.325-19.337-2.618-1.416-6.38-.771-9.26-.771 0-2.748.796-6.996-.265-9.525m15.875 3.704v10.848c0 1.377-.263 3.336.898 4.349 1.564 1.365 5.375.678 7.304.678v.794c-2.654 0-5.514.424-7.937-.794-1.195 4.615 7.054 2.91 10.053 2.91v-5.026h-8.202V110.97h1.059v10.583h2.116v-12.7zm10.054 10.319h3.175c1.106 7.383 12.193 6.645 12.4-.794.195-6.933-10.132-8.864-12.136-2.117 2.24-.048 3.452-1.937 5.556-2.085 7.348-.515 3.797 11.45-1.848 7.469a5.14 5.14 0 0 1-1.518-1.68c-.48-.867-.473-1.697-.338-2.646H74.44c1.287-8.587 14.22-7.924 14.483.794.25 8.25-11.923 9.919-14.22 2.117h-2.116c.971 11.04 18.595 8.73 18.437-2.041-.111-7.568-9.205-12.232-15.262-7.384-2.724 2.181-3.44 5.05-3.44 8.367m17.463-10.32 7.144 18.786c1.516-.52 1.952-2.846 2.466-4.234 1.483-4.009 3.952-8.221 4.678-12.435h1.058l-6.35 16.67h2.381l7.144-18.786-5.384.272-1.707 3.697-3.757 9.79h-.264L92.96 110.97h1.059l3.175 8.73c2.078-2.517.357-5.048-.642-7.672-.33-.869-.679-2.573-1.586-3.015-1.302-.636-3.745-.16-5.18-.16m20.637 7.144c2.54.629 3.804-2.123 6.35-1.801 6.649.838 2.402 11.067-2.644 7.486a5.5 5.5 0 0 1-1.565-1.717c-.471-.826-.533-1.719-.553-2.645h-2.91c.153-1.501.838-2.86 1.88-3.958.868-.916 1.938-1.682 3.147-2.069 10.609-3.395 12.647 15.237 1.587 14.181-1.833-.174-3.473-1.014-4.735-2.344-1.389-1.465-1.473-2.873-3.732-2.9.51 5.797 7.418 8.7 12.435 6.755 4.295-1.664 6.38-6.03 5.742-10.46-.808-5.604-6.86-8.834-12.091-7.257-3.359 1.011-7.269 5.21-6.455 9.07.271 1.286 2.079.551 2.88 1.257 2.086 1.837 2.049 4.29 5.427 4.788 5.147.759 9.175-4.897 6.351-9.445-2.598-4.186-9.55-3.838-11.114 1.058m17.992 1.852c-1.505-4.76 4.825-9.939 7.673-4.498l-.264.265c-.985-.685-1.896-1.761-3.175-1.799-2.986-.087-4.73 3.56-3.44 6.022.808 1.543 4.036 2.112 4.254 3.713.26 1.908-1.87.22-2.137-.792h-5.027c.01 1.267.119 2.554.71 3.704 4.417 8.587 17.238-2.022 9.34-7.615a6.36 6.36 0 0 0-2.642-1.116v-.265h4.498c0-1.257.092-2.57-.553-3.704-1.937-3.401-7.118-3.917-9.557-.77-1.4 1.806-1.84 5.44.32 6.855m12.171-8.996v9.26h.265c1.787-2.488 1.852-4.152 1.852-7.143h1.058l-.192 4.498-2.847 4.498-.136 7.673h5.292v-8.996c-2.585 1.26-2.39 4.389-2.117 6.88h-1.058l.261-5.028 2.514-3.969.4-7.673zm8.202 9.26h.265c-1.582-4.988 5.3-10.495 7.673-4.497-1.119-.34-1.768-1.398-2.91-1.697-4.45-1.163-5.827 5.586-2.378 7.642.796.475 2.843.965 2.663 2.228-.26 1.822-2.002-.157-2.138-1.03h-5.027c.004 1.282.045 2.551.677 3.705 4.645 8.473 17.08-1.943 9.354-7.614-.873-.64-1.83-.96-2.887-1.117v-.265h4.763c0-1.282.057-2.545-.59-3.704-2.016-3.613-7.758-3.873-9.934-.26-1.33 2.21-.741 4.526.47 6.61m-15.347-2.646-1.587-.53c-.696 3.375 5.186 2.868 4.859 6.88-.353 4.331-7.142 5.21-8.034.794 1.358.481 2.2 1.903 3.704 2.048 2.443.237 4.098-2.711 2.724-4.683-1.033-1.482-3.805-1.609-4.223-3.455-.457-2.018 2.242-3.813 2.557-1.054m20.638 0-1.587-.529c-.656 3.188 4.217 2.688 4.706 5.82.81 5.195-5.983 6.284-8.146 2.117l1.059-.264c1.986 2.545 7.336 2.372 5.97-1.852-.758-2.344-3.973-2.042-4.65-4.238-.64-2.069 2.192-3.859 2.649-1.054m-107.42 1.588-.265 4.233 5.556.265-5.027 6.614h-.265v-4.498l-5.291-.264c1.178-2.068 3.125-5.294 5.291-6.35m18.256 13.494v.793h1.853v5.557h.793v-5.557l2.117-.264zm9.26 0 .264 6.35h3.44v-.793h-2.646v-2.117h2.381v-.794h-2.38v-1.852c1.073 0 1.976.134 2.645-.793zm13.229 5.556c-.935 0-2.055.132-2.851-.461-2.892-2.155.54-4.546 2.85-4.302-.437-2.045-4.115-.362-4.63 1.059-1.039 2.871 3.336 6.621 4.63 3.704m5.028-5.556v6.35l1.299-2.563 2.67-.348c-.179 1.139-.585 2.541.793 2.91v-6.35h-.793c-.14 2.273-.893 2.925-3.175 2.382l.264-2.381zm10.319 0v6.35h.794v-4.763c.94 1.536 1.893 4.198 3.704 4.763v-6.35h-.53v4.498c-1.215-1.468-2.04-3.931-3.968-4.498m11.426.186c-3.308 1.278-1.44 7.447 2.328 5.967 3.492-1.371 1.507-7.45-2.328-5.967m9.211-.186v6.35h3.44v-.794h-2.646v-5.556zm9.53.196c-3.39 1.335-1.569 7.381 2.11 5.957 3.454-1.336 1.75-7.477-2.11-5.957m14.018 5.89v-3.176h-2.116v.794c2.048.624.476 2.463-1.043 1.427-3.2-2.181.594-4.471 2.895-4.338-2.495-3.847-8.59 4.676-2.381 5.506.892.12 1.772-.052 2.645-.214m4.763-6.085 1.852 6.35h.794l2.117-6.35c-1.367.235-1.762 1.413-2.117 2.645h-.53c-.476-1.144-.869-2.255-2.116-2.645m-36.509.7c2.636-.32 2.858 4.73.261 4.878-2.56.145-2.682-4.585-.261-4.878m18.529-.028c2.63-.454 3.135 4.546.515 4.9-2.594.35-2.848-4.497-.515-4.9" clip-path="url(#clipPath1)" transform="matrix(.32739 0 0 .24683 19.909 188.14)"/></g><style id="style1">@media (prefers-color-scheme:dark){:root{filter:invert(100%)}}</style></svg>