<?xml version="1.0" encoding="UTF-8" standalone="no"?>
<!-- Created with Inkscape (http://www.inkscape.org/) -->

<svg
   width="125.67709mm"
   height="34.660416mm"
   viewBox="0 0 125.67709 34.660416"
   version="1.1"
   id="svg1"
   xml:space="preserve"
   sodipodi:docname="logolovosis.svg"
   inkscape:version="1.3 (0e150ed6c4, 2023-07-21)"
   xmlns:inkscape="http://www.inkscape.org/namespaces/inkscape"
   xmlns:sodipodi="http://sodipodi.sourceforge.net/DTD/sodipodi-0.dtd"
   xmlns="http://www.w3.org/2000/svg"
   xmlns:svg="http://www.w3.org/2000/svg"><sodipodi:namedview
     id="namedview1"
     pagecolor="#ffffff"
     bordercolor="#000000"
     borderopacity="0.25"
     inkscape:showpageshadow="2"
     inkscape:pageopacity="0.0"
     inkscape:pagecheckerboard="0"
     inkscape:deskcolor="#d1d1d1"
     inkscape:document-units="mm"
     inkscape:zoom="1.9580948"
     inkscape:cx="69.710617"
     inkscape:cy="100.86335"
     inkscape:window-width="2560"
     inkscape:window-height="1334"
     inkscape:window-x="-11"
     inkscape:window-y="-11"
     inkscape:window-maximized="1"
     inkscape:current-layer="layer1" /><defs
     id="defs1" /><g
     inkscape:label="Layer 1"
     inkscape:groupmode="layer"
     id="layer1"
     transform="translate(-33.504036,-104.95597)"><path
       style="fill:#32869f;stroke:none"
       d="m 46.39513,105.14706 c -2.315385,3.22333 -4.717335,6.43882 -7.21255,9.525 -1.711543,2.1169 -4.034982,4.53409 -4.929703,7.14375 -1.211727,3.53428 0.984642,7.72107 4.733919,8.3797 2.439891,0.42861 5.197858,0.087 7.672917,0.087 v 9.26041 c 1.583304,-1.28069 2.718732,-3.14045 3.935269,-4.7625 3.296338,-4.39512 13.919271,-14.68537 5.324945,-19.33683 -2.617676,-1.41675 -6.380375,-0.7715 -9.260214,-0.7715 0,-2.74821 0.796762,-6.99569 -0.264583,-9.525 m 15.875001,3.70417 v 10.84791 c 4.42e-4,1.37664 -0.26274,3.33568 0.898278,4.34889 1.563598,1.36452 5.374995,0.6782 7.303806,0.6782 v 0.79375 c -2.654005,0 -5.514239,0.4243 -7.9375,-0.79375 -1.194412,4.61518 7.054689,2.91041 10.054167,2.91041 v -5.02708 h -8.202084 v -11.6417 h 1.058334 v 10.58334 h 2.116666 v -12.7 h -5.291667 m 10.054168,10.31875 h 3.175 c 1.106651,7.38323 12.193035,6.64566 12.401121,-0.79375 0.193912,-6.93276 -10.132586,-8.86359 -12.136538,-2.11667 2.241002,-0.048 3.452539,-1.93737 5.556251,-2.08482 7.348381,-0.51503 3.796615,11.44908 -1.848204,7.46836 -0.616193,-0.43454 -1.151157,-1.01983 -1.517474,-1.67958 -0.481233,-0.86671 -0.473078,-1.69745 -0.338489,-2.64563 h -3.175 c 1.287138,-8.58739 14.219813,-7.92456 14.483282,0.79375 0.249318,8.25014 -11.92286,9.91873 -14.218699,2.11667 h -2.116667 c 0.971275,11.04126 18.595342,8.73082 18.436723,-2.04113 -0.111431,-7.56743 -9.204796,-12.23202 -15.261521,-7.38343 -2.724394,2.18097 -3.439785,5.05009 -3.439785,8.36623 m 17.462501,-10.31875 7.143751,18.78541 c 1.515456,-0.51903 1.951799,-2.8452 2.465563,-4.23333 1.483746,-4.0089 3.952586,-8.22149 4.678186,-12.43542 h 1.05833 l -6.349996,16.66875 h 2.381246 l 7.14375,-18.78541 -5.38455,0.27193 -1.70632,3.69682 -3.757043,9.78958 H 97.195134 L 92.9618,110.96789 h 1.058334 l 3.175,8.73125 c 2.078515,-2.51803 0.357617,-5.04877 -0.64145,-7.67291 -0.330685,-0.86858 -0.679,-2.57299 -1.585869,-3.01535 -1.302395,-0.6353 -3.745665,-0.15965 -5.181015,-0.15965 m 20.6375,7.14375 c 2.53948,0.62896 3.8033,-2.12217 6.35,-1.80105 6.64824,0.8383 2.4016,11.06704 -2.64482,7.48591 -0.62527,-0.44372 -1.18511,-1.04956 -1.56483,-1.71611 -0.47077,-0.82637 -0.53311,-1.71923 -0.55285,-2.64584 h -2.91042 c 0.15372,-1.50083 0.83878,-2.86027 1.87985,-3.95813 0.86838,-0.91574 1.9383,-1.68111 3.14724,-2.06808 10.60891,-3.39579 12.64731,15.2374 1.5875,14.18134 -1.83255,-0.17498 -3.47331,-1.01477 -4.73474,-2.34491 -1.38897,-1.46463 -1.47355,-2.87305 -3.73193,-2.8998 0.50933,5.79725 7.41746,8.69946 12.43542,6.75545 4.29483,-1.66386 6.38009,-6.02934 5.74142,-10.45962 -0.80789,-5.60409 -6.85906,-8.8337 -12.09142,-7.25746 -3.35838,1.01171 -7.2684,5.21092 -6.45494,9.07035 0.27105,1.28599 2.07885,0.55113 2.88061,1.25718 2.0855,1.83652 2.04795,4.28991 5.42641,4.78781 5.14655,0.75849 9.17505,-4.89678 6.35143,-9.44538 -2.59815,-4.18536 -9.5502,-3.83814 -11.11393,1.05834 m 17.99167,1.85208 c -1.50548,-4.75918 4.82499,-9.9387 7.67291,-4.49792 l -0.26458,0.26459 c -0.98436,-0.6845 -1.8956,-1.76109 -3.175,-1.7986 -2.98568,-0.0875 -4.72948,3.55952 -3.43958,6.02152 0.80837,1.54293 4.03589,2.11209 4.25415,3.71335 0.26007,1.90798 -1.87064,0.21979 -2.13749,-0.79252 h -5.02708 c 0.0105,1.26726 0.11916,2.5549 0.71025,3.70396 4.41751,8.5875 17.23761,-2.02182 9.33983,-7.61432 -0.82076,-0.58119 -1.65993,-0.9416 -2.64175,-1.11673 v -0.26458 h 4.49792 c -1.4e-4,-1.25663 0.0926,-2.57069 -0.55285,-3.70417 -1.9366,-3.40094 -7.11775,-3.91678 -9.55705,-0.76904 -1.39931,1.80571 -1.83948,5.43838 0.32032,6.85446 m 12.17083,-8.99583 v 9.26041 h 0.26458 c 1.78748,-2.48876 1.85209,-4.15265 1.85209,-7.14375 h 1.05833 l -0.19252,4.49792 -2.84672,4.49792 -0.13576,7.67291 h 5.29167 v -8.99583 c -2.58481,1.26048 -2.39042,4.389 -2.11667,6.87917 h -1.05833 l 0.26151,-5.02709 2.51396,-3.96875 0.39953,-7.67291 h -5.29167 m 8.20209,9.26041 h 0.26458 c -1.58152,-4.98907 5.29978,-10.49644 7.67292,-4.49791 -1.11877,-0.33999 -1.7677,-1.39787 -2.91062,-1.69673 -4.4489,-1.16331 -5.8259,5.58539 -2.37718,7.64209 0.79584,0.47462 2.84291,0.96459 2.66279,2.22793 -0.25977,1.82194 -2.00163,-0.15761 -2.13749,-1.02954 h -5.02709 c 0.004,1.28113 0.0443,2.55052 0.67677,3.70416 4.64516,8.47289 17.07966,-1.94272 9.35352,-7.61371 -0.87276,-0.6406 -1.83042,-0.95923 -2.88654,-1.11754 v -0.26458 h 4.7625 c -1.3e-4,-1.28175 0.057,-2.54494 -0.58959,-3.70396 -2.01563,-3.61291 -7.75784,-3.87274 -9.93351,-0.26091 -1.33127,2.21003 -0.7415,4.527 0.46894,6.6107 m -15.34584,-2.64583 -1.5875,-0.52917 c -0.69592,3.37457 5.18622,2.86669 4.85906,6.87917 -0.35315,4.3314 -7.14232,5.21043 -8.03406,0.79375 1.35795,0.48141 2.20001,1.90285 3.70417,2.04848 2.44235,0.23646 4.09802,-2.71167 2.72423,-4.68288 -1.03302,-1.48223 -3.80566,-1.60898 -4.22354,-3.4551 -0.45698,-2.01881 2.24248,-3.81379 2.55764,-1.05425 m 20.6375,0 -1.5875,-0.52917 c -0.6561,3.18819 4.21682,2.68774 4.70595,5.82084 0.81088,5.19404 -5.98256,6.28293 -8.14553,2.11666 l 1.05833,-0.26458 c 1.98627,2.54562 7.3361,2.37195 5.97048,-1.85188 -0.75786,-2.34403 -3.97317,-2.04236 -4.65103,-4.23762 -0.63886,-2.06892 2.19242,-3.85932 2.6493,-1.05425 m -107.420837,1.5875 -0.264583,4.23333 5.55625,0.26459 -5.027083,6.61458 h -0.264584 v -4.49792 l -5.291667,-0.26458 c 1.17797,-2.06749 3.124785,-5.29344 5.291667,-6.35 m 18.256252,13.49375 v 0.79375 h 1.852083 v 5.55625 h 0.79375 v -5.55625 l 2.116667,-0.26458 -4.7625,-0.52917 m 9.260417,0 0.264584,6.35 h 3.439583 v -0.79375 h -2.645833 v -2.11667 h 2.38125 v -0.79375 h -2.38125 v -1.85208 c 1.074111,-8.3e-4 1.976676,0.1341 2.645833,-0.79375 h -3.704167 m 13.229168,5.55625 c -0.935247,-6.2e-4 -2.054502,0.13259 -2.851009,-0.46098 -2.891745,-2.15496 0.539352,-4.5457 2.851009,-4.30152 -0.438208,-2.04493 -4.115867,-0.36269 -4.630209,1.05833 -1.039314,2.87143 3.335145,6.62176 4.630209,3.70417 m 5.027084,-5.55625 v 6.35 l 1.298826,-2.56274 2.669924,-0.34768 c -0.178615,1.13867 -0.584844,2.54083 0.79375,2.91042 v -6.35 h -0.79375 c -0.140459,2.27219 -0.892464,2.92443 -3.175,2.38125 l 0.264583,-2.38125 h -1.058333 m 10.318746,0 v 6.35 h 0.79375 v -4.7625 c 0.94019,1.5359 1.89324,4.19758 3.70417,4.7625 v -6.35 h -0.52917 v 4.49792 c -1.21541,-1.46803 -2.04001,-3.93063 -3.96875,-4.49792 m 11.42608,0.18598 c -3.30833,1.27847 -1.44057,7.4476 2.32817,5.96762 3.49227,-1.37141 1.50686,-7.44961 -2.32817,-5.96762 m 9.21142,-0.18598 v 6.35 h 3.43959 v -0.79375 h -2.64584 v -5.55625 h -0.79375 m 9.52909,0.19639 c -3.38892,1.33467 -1.56848,7.38124 2.11135,5.95721 3.45289,-1.3362 1.74863,-7.47738 -2.11135,-5.95721 m 14.01883,5.88903 v -3.175 h -2.11667 v 0.79375 c 2.04827,0.62392 0.47589,2.46339 -1.04302,1.42764 -3.19974,-2.18191 0.59444,-4.47189 2.89511,-4.33806 -2.49437,-3.84758 -8.58977,4.67599 -2.38125,5.50603 0.89202,0.11926 1.77252,-0.0522 2.64583,-0.21436 m 4.7625,-6.08542 1.85209,6.35 h 0.79375 l 2.11666,-6.35 c -1.36661,0.23494 -1.76166,1.41364 -2.11666,2.64583 h -0.52917 c -0.47668,-1.14449 -0.86957,-2.25584 -2.11667,-2.64583 m -36.50944,0.70045 c 2.6361,-0.31951 2.85826,4.73048 0.26152,4.87785 -2.56125,0.14535 -2.68205,-4.58446 -0.26152,-4.87785 m 18.52901,-0.0278 c 2.62955,-0.45402 3.13496,4.54602 0.51487,4.9001 -2.59339,0.35046 -2.84784,-4.49729 -0.51487,-4.9001 z"
       id="path1" /></g></svg>
