<svg xmlns="http://www.w3.org/2000/svg" xml:space="preserve" width="475" height="131" viewBox="0 0 125.677 34.66"><path d="M46.395 105.147c-2.315 3.223-4.717 6.439-7.212 9.525-1.712 2.117-4.035 4.534-4.93 7.144-1.212 3.534.985 7.72 4.734 8.38 2.44.428 5.198.087 7.673.087v9.26c1.583-1.28 2.718-3.14 3.935-4.763 3.296-4.395 13.92-14.685 5.325-19.336-2.618-1.417-6.38-.772-9.26-.772 0-2.748.796-6.996-.265-9.525m15.875 3.704V119.7c0 1.377-.263 3.336.898 4.35 1.564 1.364 5.375.677 7.304.677v.794c-2.654 0-5.514.424-7.937-.794-1.195 4.615 7.054 2.91 10.054 2.91v-5.026h-8.202v-11.642h1.058v10.583h2.117v-12.7zm10.054 10.319H75.5c1.107 7.383 12.193 6.646 12.401-.794.194-6.933-10.132-8.863-12.136-2.116 2.24-.048 3.452-1.938 5.556-2.085 7.349-.515 3.797 11.449-1.848 7.468a5.14 5.14 0 0 1-1.518-1.68c-.48-.866-.473-1.697-.338-2.645h-3.175c1.287-8.587 14.22-7.925 14.483.794.25 8.25-11.923 9.918-14.218 2.116H72.59c.971 11.042 18.595 8.731 18.437-2.04-.112-7.568-9.205-12.233-15.262-7.384-2.724 2.18-3.44 5.05-3.44 8.366m17.463-10.319 7.144 18.786c1.515-.52 1.951-2.846 2.465-4.234 1.484-4.009 3.953-8.221 4.678-12.435h1.059l-6.35 16.669h2.38l7.145-18.786-5.385.272-1.706 3.697-3.757 9.79h-.265l-4.233-11.642h1.058l3.175 8.731c2.079-2.518.358-5.049-.641-7.673-.331-.868-.68-2.573-1.586-3.015-1.303-.635-3.746-.16-5.181-.16m20.637 7.144c2.54.629 3.804-2.122 6.35-1.801 6.649.838 2.402 11.067-2.645 7.486a5.5 5.5 0 0 1-1.564-1.716c-.471-.827-.533-1.72-.553-2.646h-2.91c.153-1.5.838-2.86 1.88-3.958.868-.916 1.938-1.681 3.146-2.068 10.61-3.396 12.648 15.237 1.588 14.181-1.833-.175-3.473-1.015-4.735-2.345-1.389-1.465-1.473-2.873-3.732-2.9.51 5.798 7.418 8.7 12.436 6.756 4.295-1.664 6.38-6.03 5.741-10.46-.808-5.604-6.859-8.834-12.091-7.257-3.359 1.011-7.269 5.21-6.455 9.07.27 1.286 2.079.551 2.88 1.257 2.086 1.837 2.048 4.29 5.427 4.788 5.146.759 9.175-4.897 6.351-9.445-2.598-4.186-9.55-3.838-11.114 1.058m17.992 1.852c-1.506-4.76 4.825-9.939 7.673-4.498l-.265.265c-.984-.685-1.895-1.761-3.175-1.799-2.985-.087-4.73 3.56-3.44 6.022.81 1.543 4.037 2.112 4.255 3.713.26 1.908-1.87.22-2.138-.793H126.3c.01 1.268.12 2.555.71 3.704 4.418 8.588 17.238-2.021 9.34-7.614a6.36 6.36 0 0 0-2.641-1.117v-.264h4.498c0-1.257.092-2.57-.553-3.704-1.937-3.401-7.118-3.917-9.557-.77-1.4 1.806-1.84 5.439.32 6.855m12.17-8.996v9.26h.265c1.788-2.488 1.852-4.152 1.852-7.143h1.059l-.193 4.498-2.846 4.498-.136 7.673h5.291v-8.996c-2.584 1.26-2.39 4.389-2.116 6.879h-1.059l.262-5.027 2.514-3.969.4-7.673zm8.202 9.26h.264c-1.581-4.988 5.3-10.496 7.673-4.497-1.118-.34-1.767-1.398-2.91-1.697-4.45-1.163-5.826 5.585-2.377 7.642.795.475 2.842.965 2.662 2.228-.26 1.822-2.001-.158-2.137-1.03h-5.027c.004 1.282.044 2.551.677 3.705 4.645 8.473 17.08-1.943 9.353-7.614-.873-.64-1.83-.96-2.886-1.118v-.264h4.762c0-1.282.057-2.545-.59-3.704-2.015-3.613-7.757-3.873-9.933-.261-1.331 2.21-.742 4.527.469 6.61m-15.346-2.645-1.587-.53c-.696 3.375 5.186 2.867 4.859 6.88-.354 4.331-7.143 5.21-8.034.794 1.357.481 2.2 1.902 3.704 2.048 2.442.237 4.098-2.712 2.724-4.683-1.033-1.482-3.806-1.609-4.224-3.455-.457-2.019 2.243-3.814 2.558-1.054m20.638 0-1.588-.53c-.656 3.189 4.217 2.688 4.706 5.821.81 5.195-5.983 6.283-8.146 2.117l1.059-.264c1.986 2.545 7.336 2.372 5.97-1.852-.758-2.344-3.973-2.043-4.65-4.238-.64-2.069 2.192-3.86 2.649-1.054M46.66 117.053l-.265 4.234 5.556.264-5.027 6.615h-.264v-4.498l-5.292-.265c1.178-2.067 3.125-5.293 5.292-6.35m18.256 13.494v.794h1.852v5.556h.794v-5.556l2.116-.265zm9.26 0 .265 6.35h3.44v-.794h-2.646v-2.116h2.381v-.794h-2.381v-1.852c1.074-.001 1.976.134 2.646-.794zm13.23 5.556c-.936 0-2.055.133-2.851-.46-2.892-2.156.539-4.546 2.85-4.302-.438-2.045-4.115-.363-4.63 1.058-1.039 2.872 3.335 6.622 4.63 3.704m5.028-5.556v6.35l1.298-2.563 2.67-.347c-.178 1.138-.584 2.54.794 2.91v-6.35h-.794c-.14 2.272-.892 2.924-3.175 2.381l.265-2.38zm10.318 0v6.35h.794v-4.763c.94 1.535 1.893 4.197 3.704 4.762v-6.35h-.529v4.498c-1.215-1.468-2.04-3.93-3.969-4.498m11.426.186c-3.308 1.279-1.44 7.448 2.329 5.968 3.492-1.372 1.506-7.45-2.329-5.968m9.212-.186v6.35h3.44v-.794h-2.646v-5.556zm9.529.196c-3.389 1.335-1.569 7.382 2.111 5.958 3.453-1.337 1.749-7.478-2.111-5.958m14.019 5.89v-3.176h-2.117v.794c2.048.624.476 2.464-1.043 1.428-3.2-2.182.595-4.472 2.895-4.338-2.494-3.848-8.59 4.676-2.381 5.506.892.12 1.772-.052 2.646-.215m4.762-6.085 1.852 6.35h.794l2.117-6.35c-1.367.235-1.762 1.414-2.117 2.646h-.529c-.477-1.145-.87-2.256-2.117-2.646m-36.51.7c2.637-.319 2.86 4.731.262 4.878-2.56.146-2.682-4.584-.261-4.877m18.529-.028c2.63-.454 3.135 4.546.515 4.9-2.594.35-2.848-4.497-.515-4.9" style="fill:#32869f;stroke:none" transform="translate(-33.504 -104.956)"/></svg>